/* XPM */
static char *_8a2e947b462419fa550266aa3776381Ro5uoNq1OUFpreNL[] = {
/* columns rows colors chars-per-pixel */
"64 64 5 1 ",
"  c #93E3E4",
". c #13782B",
"X c #008523",
"o c #8CC299",
"O c #B4CCBA",
/* pixels */
"                                                                ",
"                                                                ",
"                                                                ",
"                                                                ",
"                                                                ",
"                                                                ",
"                                                                ",
"                                                                ",
"                                                                ",
"                                                                ",
"                                                                ",
"                                                                ",
"                                                                ",
"                                                                ",
"                                                                ",
"                                                                ",
"                                                                ",
"                      XX..         ..XXX.                       ",
"                     ..  X        X.    ..                      ",
"                     X    X       X      X                      ",
"                    X      X      .      X                      ",
"                    X      X     X       X                      ",
"                    X      X     X      X                       ",
"                    X      X    X       X                       ",
"                    X      XXXXXX                               ",
"                           XOOOXX                               ",
"                           XOOOOX                               ",
"                          .OOOOOOX                              ",
"                          .OOOOOOX                              ",
"                         XO.X.OOOOX                             ",
"                         XOXo.OOOOX                             ",
"                        XOOXX.OOOOOX                            ",
"                        XOOOOOOOOOOX                            ",
"                       .OOOOOOOOOOOOX                           ",
"                       XOOOOOOOOOOOO.                           ",
"                       XOXXOOOOOOXXO.                           ",
"                       XOXoXOOOOXXXX.                           ",
"                       XOXoXOOOOXooX.                           ",
"                       XO.ooXOOOXo...                           ",
"                       XOXooXOOXoo.O.                           ",
"                       .OXoXXOXooXXOX                           ",
"                       .OOXooXooooXOX                           ",
"                        XO.ooooooXOX                            ",
"                        XOOXooooXXOX                            ",
"                         XOXXXXXOOX                             ",
"                          XOOOOOOX                              ",
"                           XX...X                               ",
"                                                                ",
"                                                                ",
"                                                                ",
"                                                                ",
"                                                                ",
"                                                                ",
"                                                                ",
"                                                                ",
"                                                                ",
"                                                                ",
"                                                                ",
"                                                                ",
"                                                                ",
"                                                                ",
"                                                                ",
"                                                                ",
"                                                                "
};
