/* XPM */
static char *bb36c9488df044f3f8b474a5be4ffe5caxjyHcKvJry7iWXj[] = {
/* columns rows colors chars-per-pixel */
"64 64 8 1 ",
"  c #93E3E4",
". c black",
"X c #072902",
"o c #212021",
"O c #323133",
"+ c #383637",
"@ c #0B4004",
"# c #5E5C5E",
/* pixels */
"                                                                ",
"                                                                ",
"                                                                ",
"                                                                ",
"                                                                ",
"                                        @@                      ",
"                                    @   @@                      ",
"              @    @               @@  @X@                      ",
"              @    @@             @@@@@@X@                      ",
"              @    XX  @          @XX@XX@X                      ",
"              @    XX  @          XXX@XX@@                      ",
"             @@@   XX  @          XXXX@@@@                      ",
"             @X@   XX  @          XXXX@X@                       ",
"             @X@  @XX@@@          XXX@XX@                       ",
"             XXX@@@XX@X           XXX@X@                        ",
"            @XXXX@XXXXX           @X@@X@                        ",
"            @XXXX@XX@XX           @X@@@                         ",
"            @XXXX@X@XXX            @@X@                         ",
"            @XXXX@X@XXX    ....oo.. @@                          ",
"            @XXXX@X@XXX  ..ooooooo..@                           ",
"            @XXXX@X@XXX  .ooooooooo...       @                  ",
"            @XXXX@X@XX@ .oooo....oooo..     @@                  ",
"             @XXXX@@X@@oooo.++++++..ooo.    XX                  ",
"             @@XXX@@X@.ooo.+++++++++oooo   @XX                  ",
"              @XXX@@X..oo..+++++++++..oo. @@XX@                 ",
"               @XXX@X.ooo.+++++++++++.oo. @XXX@ @               ",
"               @@XX@X.oo.++++OOOOO++++oo. @XXX@ @               ",
"                 XX@.oo.+++O#######O++.oo. @XX @                ",
"                 @X@.o.++OO#########++.oo.  XX@@                ",
"                 @X....++O##########O++.o.  X@@X                ",
"                  @oo.++O###########O+++oo. X@XX                ",
"                  ...++OO#############++.o. @@@                 ",
"                 .o.+++O##############O+....@@                  ",
"                 .o++++###############O++...@                   ",
"                 o.+++O###############OO++oo.                   ",
"                ..+++O#################O++..o.                  ",
"                ..+++O##################++..o.                  ",
"               .o++++###################O++.o.                  ",
"               ..+++O###################O+++oo                  ",
"               ..+++O###################OO++oo..                ",
"             .o.+++O#####################O++.oo.                ",
"             .o.+++##....#.##.#...#.....##+++..o                ",
"             .o.++O##.####.##.##.####.####O++..o                ",
"             oo+++O##...###..###.####.####O++..o.               ",
"            .o.++O###.####.##.##.####.#####O++.oo.              ",
"            .o.++O###....#.##.#...###.######++.oo.              ",
"           ..o.++###########################++.ooo              ",
"          .oo.+++###########################O+.ooo              ",
"         .ooo+++O###########################O++.oo              ",
"         .oo.++OO###########################O++.oo.             ",
"         .oo.++O############################OO+.oo.             ",
"         .oo.++O#############################O++oo..            ",
"         .o.+++##############################O++ooo.            ",
"         .o.+O################################O+oooo            ",
"         .o++O################################OO.ooo            ",
"                                                                ",
"                                                                ",
"                                                                ",
"                                                                ",
"                                                                ",
"                                                                ",
"                                                                ",
"                                                                ",
"                                                                "
};
